<svg xmlns="http://www.w3.org/2000/svg" xmlns:xlink="http://www.w3.org/1999/xlink" viewBox="0 0 113.98 113.98"><defs><style>.cls-1{fill:url(#linear-gradient);}.cls-2{fill:url(#linear-gradient-2);}.cls-3{fill:url(#linear-gradient-3);}.cls-4{fill:url(#linear-gradient-4);}.cls-5{fill:url(#linear-gradient-5);}.cls-6{fill:url(#linear-gradient-6);}.cls-7{fill:url(#linear-gradient-7);}.cls-8{fill:url(#linear-gradient-8);}.cls-9{fill:url(#linear-gradient-9);}.cls-10{fill:url(#linear-gradient-10);}.cls-11{fill:url(#linear-gradient-11);}.cls-12{fill:url(#linear-gradient-12);}.cls-13{fill:url(#linear-gradient-13);}.cls-14{fill:url(#linear-gradient-14);}.cls-15{fill:url(#linear-gradient-15);}.cls-16{fill:url(#linear-gradient-16);}.cls-17{fill:url(#linear-gradient-17);}.cls-18{fill:url(#linear-gradient-18);}.cls-19{fill:url(#linear-gradient-19);}.cls-20{fill:url(#linear-gradient-20);}.cls-21{fill:url(#linear-gradient-21);}.cls-22{fill:url(#linear-gradient-22);}</style><linearGradient id="linear-gradient" x1="0.52" y1="49.22" x2="0.53" y2="49.22" gradientUnits="userSpaceOnUse"><stop offset="0" stop-color="#cd3053"/><stop offset="0.23" stop-color="#cc2a71"/><stop offset="0.52" stop-color="#cd3990"/><stop offset="0.67" stop-color="#cd388d"/><stop offset="0.79" stop-color="#cd3688"/><stop offset="1" stop-color="#cc203f"/></linearGradient><linearGradient id="linear-gradient-2" x1="0.51" y1="49.32" x2="0.52" y2="49.32" xlink:href="#linear-gradient"/><linearGradient id="linear-gradient-3" x1="0.6" y1="48.54" x2="0.65" y2="48.54" xlink:href="#linear-gradient"/><linearGradient id="linear-gradient-4" x1="0.54" y1="48.95" x2="0.59" y2="48.95" xlink:href="#linear-gradient"/><linearGradient id="linear-gradient-5" x1="0.35" y1="50.55" x2="0.37" y2="50.55" xlink:href="#linear-gradient"/><linearGradient id="linear-gradient-6" x1="0.07" y1="54.01" x2="0.09" y2="54.01" xlink:href="#linear-gradient"/><linearGradient id="linear-gradient-7" x1="0.18" y1="52.24" x2="0.21" y2="52.24" xlink:href="#linear-gradient"/><linearGradient id="linear-gradient-8" x1="0.11" y1="53.11" x2="0.16" y2="53.11" xlink:href="#linear-gradient"/><linearGradient id="linear-gradient-9" x1="29.77" y1="76.23" x2="29.84" y2="76.23" xlink:href="#linear-gradient"/><linearGradient id="linear-gradient-10" x1="38.34" y1="17.95" x2="62.11" y2="17.95" xlink:href="#linear-gradient"/><linearGradient id="linear-gradient-11" x1="30.53" y1="87.58" x2="48.49" y2="87.58" xlink:href="#linear-gradient"/><linearGradient id="linear-gradient-12" x1="0" y1="56.7" x2="0" y2="56.7" xlink:href="#linear-gradient"/><linearGradient id="linear-gradient-13" x1="0" y1="77.59" x2="46.2" y2="77.59" xlink:href="#linear-gradient"/><linearGradient id="linear-gradient-14" x1="95.2" y1="14.94" x2="95.72" y2="14.94" xlink:href="#linear-gradient"/><linearGradient id="linear-gradient-15" x1="96.33" y1="15.77" x2="96.36" y2="15.77" xlink:href="#linear-gradient"/><linearGradient id="linear-gradient-16" x1="96.44" y1="16.1" x2="96.93" y2="16.1" xlink:href="#linear-gradient"/><linearGradient id="linear-gradient-17" x1="95.79" y1="15.38" x2="96.07" y2="15.38" xlink:href="#linear-gradient"/><linearGradient id="linear-gradient-18" x1="0.07" y1="54.24" x2="0.07" y2="54.24" xlink:href="#linear-gradient"/><linearGradient id="linear-gradient-19" x1="0.06" y1="54.37" x2="0.06" y2="54.37" xlink:href="#linear-gradient"/><linearGradient id="linear-gradient-20" x1="0" y1="55.63" x2="0.04" y2="55.63" xlink:href="#linear-gradient"/><linearGradient id="linear-gradient-21" x1="0" y1="49.03" x2="96.93" y2="49.03" xlink:href="#linear-gradient"/><linearGradient id="linear-gradient-22" x1="17.05" y1="64.96" x2="113.98" y2="64.96" xlink:href="#linear-gradient"/></defs><title>Asset 1</title><g id="Layer_2" data-name="Layer 2"><g id="Objects"><polygon class="cls-1" points="0.53 49.2 0.53 49.22 0.52 49.24 0.53 49.22 0.53 49.2"/><polygon class="cls-2" points="0.52 49.3 0.51 49.34 0.51 49.34 0.51 49.34 0.52 49.3"/><path class="cls-3" d="M.6,48.71c0-.09,0-.19,0-.29v0c0,.1,0,.19,0,.29h0Z"/><path class="cls-4" d="M.59,48.79l0,.17,0,.16,0-.15Z"/><path class="cls-5" d="M.35,50.64l0-.19a1.37,1.37,0,0,1,0,.19h0Z"/><path class="cls-6" d="M.09,53.84c0,.11,0,.22,0,.34h0C.08,54.06.08,54,.09,53.84Z"/><path class="cls-7" d="M.21,52.1c0,.06,0,.12,0,.19v.1a.34.34,0,0,0,0-.1C.2,52.23.2,52.16.21,52.1Z"/><path class="cls-8" d="M.15,52.81v-.09a.28.28,0,0,1,0,.09c0,.21,0,.43,0,.69h0C.12,53.24.14,53,.15,52.81Z"/><path class="cls-9" d="M29.77,76.15c0,.06.05.11.07.16S29.79,76.21,29.77,76.15Z"/><path class="cls-10" d="M38.34,24.86A47.14,47.14,0,0,1,55.89,13,45.59,45.59,0,0,1,62.11,11,46.16,46.16,0,0,0,55.88,13,47.18,47.18,0,0,0,38.34,24.86Z"/><path class="cls-11" d="M48.49,97.39h0A47.16,47.16,0,0,1,34.19,84a45.64,45.64,0,0,1-3.66-6.2A45.64,45.64,0,0,0,34.19,84,47,47,0,0,0,48.49,97.39Z"/><path class="cls-12" d="M0,56.52H0v0Z"/><path class="cls-13" d="M12.23,86.23A40.81,40.81,0,0,1,0,57.61v0A41.06,41.06,0,0,0,41.07,98.06a41.69,41.69,0,0,0,5.13-.32,41.69,41.69,0,0,1-5.13.32A40.84,40.84,0,0,1,12.23,86.23Z"/><path class="cls-14" d="M95.4,14.88l0,0,.3.28-.3-.28,0,0-.14-.12-.06-.06.06.06Z"/><polygon class="cls-15" points="96.36 15.78 96.34 15.76 96.33 15.76 96.33 15.76 96.36 15.78"/><path class="cls-16" d="M96.92,16.32s0,0,0,0h0v0l-.2-.19a3.45,3.45,0,0,0-.28-.26l.28.26Z"/><path class="cls-17" d="M96.07,15.51c-.09-.08-.17-.17-.27-.25h0C95.9,15.34,96,15.43,96.07,15.51Z"/><path class="cls-18" d="M.07,54.21h0v0Z"/><polygon class="cls-19" points="0.06 54.37 0.06 54.37 0.06 54.38 0.06 54.37 0.06 54.37"/><path class="cls-20" d="M0,55.82v-.19c0-.22,0-.44,0-.67v0c0,.23,0,.45,0,.67v.74C0,56.18,0,56,0,55.82Z"/><path class="cls-21" d="M.66,48.3v.12c0,.1,0,.2,0,.29h0v.06l0,.18,0,.15v.07h0v0h0v.09h0v0c0,.18,0,.37-.08.56l-.06.52,0,.19h0c0,.2,0,.41-.07.62s0,.31,0,.46v0l0,.15c0,.06,0,.12,0,.19s0,.13,0,.19a.34.34,0,0,1,0,.1.76.76,0,0,1,0,.15v.27c0,.21,0,.43,0,.69h0c0,.11,0,.22,0,.33s0,.22,0,.34h0v0a.19.19,0,0,0,0,.08v0h0v0c0,.13,0,.26,0,.38V55c0,.23,0,.45,0,.67v.19c0,.18,0,.36,0,.55v.15H0v1.09A41.06,41.06,0,0,0,41.07,98.06a41.69,41.69,0,0,0,5.13-.32c.77-.1,1.53-.21,2.29-.35h0A47,47,0,0,1,34.19,84a45.64,45.64,0,0,1-3.66-6.2c-.24-.48-.47-1-.69-1.46,0,0-.05-.1-.07-.16A47.24,47.24,0,0,1,55.88,13,46.16,46.16,0,0,1,62.11,11a47.31,47.31,0,0,1,34.82,5.3h0s0,0,0,0l-.2-.19-.28-.26-.08-.08h0l0,0h0c-.07-.08-.16-.15-.24-.23s-.17-.17-.27-.25h0l0,0,0,0-.3-.28,0,0-.14-.12-.06-.06-.44-.39-.48-.42-.16-.13a3,3,0,0,0-.33-.28l-.22-.19-.12-.1h0l-.09-.07,0,0-.38-.31,0,0h0l-.29-.23h0l-1-.74h0l-.26-.2-.11-.08-.06,0,0,0h-.05l-.18-.14-.07-.05-.24-.18-.08,0-.14-.1-.1-.07h0L90,10.5l-.06-.05,0,0,0,0-.71-.5h0l-.32-.22-.08,0h0l-.48-.32h0l-.11-.07L87.71,9l0,0h0l-.53-.33h0l0,0-.54-.33-.29-.18h0L86.13,8,86,7.9h0l-.1-.06-.39-.22-.1-.06-.13-.08-.36-.21,0,0Q83.61,6.57,82.36,6l-.06,0h0l-.55-.27-.49-.23h0l0,0h-.06c-.57-.27-1.1-.51-1.62-.72h-.05l-.37-.16,0,0h0l-.23-.09-.23-.1-.11,0c-.55-.22-1-.4-1.42-.55l-.24-.1h0l-.26-.1c-.69-.25-1.42-.5-2.15-.73h0l-.41-.13-.43-.13-.26-.08-.9-.26h0l-.12,0-.18,0h0l-.06,0c-.6-.16-1.21-.3-1.82-.45l-1.09-.24C68.31,1.13,67.7,1,67.08.89L66.4.77h0L65.68.66,65.36.61,65,.55c-.65-.09-1.31-.17-2-.24C61.71.18,60.43.09,59.14,0,58.42,0,57.71,0,57,0c-1.2,0-2.41,0-3.62.12L53,.14c-1.33.09-2.66.23-4,.41l-.71.11h0L.66,48.28Z"/><path class="cls-22" d="M113.34,65.62v-.09l0-.24V65.2c0-.1,0-.21,0-.31v-.14s0-.07,0-.1l0-.36,0-.24c0-.24.06-.46.08-.68v0l.06-.61c0-.17,0-.33,0-.49h0v-.15l0-.34v-.08c0-.15,0-.29,0-.43v-.06c0-.21,0-.43,0-.68v0c0-.22,0-.44,0-.65v-.24c0-.18,0-.37,0-.55s0-.49,0-.72v-.14c0-.17,0-.34,0-.51V56.53h0v-.15A41.06,41.06,0,0,0,72.92,15.93a41.62,41.62,0,0,0-7.42.66A47.22,47.22,0,0,1,17.05,97.65h0l0,0,0,0a.94.94,0,0,0,.1.1l.12.11a3.57,3.57,0,0,0,.28.27v0h0c.15.15.33.33.51.49l0,0,0,0,.36.33h0l.63.57h0v0l.42.36,0,0,.09.08h0l.4.35.08.07,0,0,.33.27.05,0,0,0,.32.26,0,0,0,0,.25.2,0,0,0,0c.31.25.62.5.94.74l.21.16.23.17.13.1.08.06.38.28.12.09.19.14,0,0h0l.28.21.11.07.71.5h0l0,0,.32.21.08,0,.26.18.28.19.44.28.44.28h.36l.65.62.3.18.59.34h0l0,0,.47.26q1.26.72,2.55,1.35l.56.28.08,0,.53.25c.54.25,1.09.5,1.63.73h0l.4.17.13,0,.54.22c.44.18.91.37,1.41.55h0l.46.18h0c.73.27,1.45.51,2.14.73h.05l.42.14h0l.63.19.18.06.76.21.39.11h0c1.57.43,3.17.78,4.75,1.06h0l.66.12h0l.65.1h.07l.66.1h0a58.09,58.09,0,0,0,15.95,0h0c.21,0,.42,0,.63-.09h0L113.33,65.7A.22.22,0,0,1,113.34,65.62Z"/></g></g></svg>